HIERARCHY
ROOT Hips
{
	OFFSET 0.000000 0.000000 0.000000
	CHANNELS 6 Xposition Yposition Zposition Xrotation Yrotation Zrotation
	JOINT LeftUpLeg_virtual
	{
		OFFSET 0.000000 0.000000 0.000000
		CHANNELS 3 Xrotation Yrotation Zrotation
		JOINT LeftUpLeg
		{
			OFFSET 11.394100 -6.187798 -0.413800
			CHANNELS 3 Xrotation Yrotation Zrotation
			JOINT LeftLeg
			{
				OFFSET 0.430247 -32.302673 3.732800
				CHANNELS 3 Xrotation Yrotation Zrotation
				JOINT LeftFoot
				{
					OFFSET -0.430247 -48.264931 -6.423300
					CHANNELS 3 Xrotation Yrotation Zrotation
					JOINT LeftToeBase
					{
						OFFSET 4.230900 -16.068199 23.438400
						CHANNELS 3 Xrotation Yrotation Zrotation
						JOINT LeftToe_End
						{
							OFFSET 4.510700 0.695400 19.974600
							CHANNELS 3 Xrotation Yrotation Zrotation
							End Site
							{
								OFFSET 0 0 0
							}
						}
					}
				}
			}
		}
	}
	JOINT RightUpLeg_virtual
	{
		OFFSET 0.000000 0.000000 0.000000
		CHANNELS 3 Xrotation Yrotation Zrotation
		JOINT RightUpLeg
		{
			OFFSET -11.333700 -6.187798 -0.413800
			CHANNELS 3 Xrotation Yrotation Zrotation
			JOINT RightLeg
			{
				OFFSET -0.430392 -32.302628 3.733000
				CHANNELS 3 Xrotation Yrotation Zrotation
				JOINT RightFoot
				{
					OFFSET 0.430392 -48.264973 -6.423500
					CHANNELS 3 Xrotation Yrotation Zrotation
					JOINT RightToeBase
					{
						OFFSET -4.230900 -16.068199 23.438400
						CHANNELS 3 Xrotation Yrotation Zrotation
						JOINT RightToe_End
						{
							OFFSET -4.510700 0.695400 19.974600
							CHANNELS 3 Xrotation Yrotation Zrotation
							End Site
							{
								OFFSET 0 0 0
							}
						}
					}
				}
			}
		}
	}
	JOINT Spine_virtual
	{
		OFFSET 0.000000 0.000000 0.000000
		CHANNELS 3 Xrotation Yrotation Zrotation
		JOINT Spine
		{
			OFFSET -0.002400 12.777504 0.315300
			CHANNELS 3 Xrotation Yrotation Zrotation
			JOINT Spine1
			{
				OFFSET -0.002067 5.816869 0.032633
				CHANNELS 3 Xrotation Yrotation Zrotation
				JOINT Spine1_split
				{
					OFFSET -0.002067 5.816869 0.032633
					CHANNELS 3 Xrotation Yrotation Zrotation
					JOINT Spine2
					{
						OFFSET -0.002067 5.816869 0.032633
						CHANNELS 3 Xrotation Yrotation Zrotation
						JOINT Neck_virtual
						{
							OFFSET 0.000000 0.000000 0.000000
							CHANNELS 3 Xrotation Yrotation Zrotation
							JOINT Neck
							{
								OFFSET -0.003700 21.199493 -0.826900
								CHANNELS 3 Xrotation Yrotation Zrotation
								JOINT Head
								{
									OFFSET 0.000000 20.442200 4.834800
									CHANNELS 3 Xrotation Yrotation Zrotation
									JOINT HeadTop_End
									{
										OFFSET 0.000000 34.668396 4.968400
										CHANNELS 3 Xrotation Yrotation Zrotation
										End Site
										{
											OFFSET 0 0 0
										}
									}
								}
							}
						}
						JOINT LeftShoulder_virtual
						{
							OFFSET 0.000000 0.000000 0.000000
							CHANNELS 3 Xrotation Yrotation Zrotation
							JOINT LeftShoulder
							{
								OFFSET 3.288150 8.794197 -1.372250
								CHANNELS 3 Xrotation Yrotation Zrotation
								JOINT LeftShoulder_split
								{
									OFFSET 3.288150 8.794197 -1.372250
									CHANNELS 3 Xrotation Yrotation Zrotation
									JOINT LeftArm
									{
										OFFSET 11.953299 -2.279007 -0.146200
										CHANNELS 3 Xrotation Yrotation Zrotation
										JOINT LeftForeArm
										{
											OFFSET 18.448900 0.000000 0.000000
											CHANNELS 3 Xrotation Yrotation Zrotation
											JOINT LeftHand
											{
												OFFSET 29.527798 0.000000 0.000000
												CHANNELS 3 Xrotation Yrotation Zrotation
												End Site
												{
													OFFSET 0 0 0
												}
											}
										}
									}
								}
							}
						}
						JOINT RightShoulder_virtual
						{
							OFFSET 0.000000 0.000000 0.000000
							CHANNELS 3 Xrotation Yrotation Zrotation
							JOINT RightShoulder
							{
								OFFSET -3.249400 8.794197 -1.372250
								CHANNELS 3 Xrotation Yrotation Zrotation
								JOINT RightShoulder_split
								{
									OFFSET -3.249400 8.794197 -1.372250
									CHANNELS 3 Xrotation Yrotation Zrotation
									JOINT RightArm
									{
										OFFSET -11.953299 -2.279007 -0.146200
										CHANNELS 3 Xrotation Yrotation Zrotation
										JOINT RightForeArm
										{
											OFFSET -18.448900 0.000000 0.000000
											CHANNELS 3 Xrotation Yrotation Zrotation
											JOINT RightHand
											{
												OFFSET -29.527802 0.000000 0.000000
												CHANNELS 3 Xrotation Yrotation Zrotation
												End Site
												{
													OFFSET 0 0 0
												}
											}
										}
									}
								}
							}
						}
					}
				}
			}
		}
	}
}
MOTION
Frames: 8
Frame Time: 0.03333333
2.879556 80.520378 -8.710564 0.000000 0.000000 0.000000 8.833016 -2.876261 4.388828 -61.435482 -1.988860 19.486571 51.380235 -5.094718 6.050055 8.717968 5.657605 -27.362675 1.153206 -5.320838 3.595902 0.000000 0.000000 0.000000 9.140903 -2.823442 4.425952 -42.230319 -5.482228 -26.333700 53.691055 16.146419 -8.387316 -14.389771 -18.130578 34.321246 6.182137 12.700857 -19.365777 0.000000 0.000000 0.000000 9.021787 4.395118 3.162111 3.856306 -0.249052 -2.298810 9.557058 -0.301571 1.134133 0.062713 0.153560 -0.100947 0.000000 0.000000 0.000000 8.564684 2.391801 0.971301 -2.111550 -3.048842 -7.897620 -32.527079 2.833231 -6.329768 0.000000 0.000000 0.000000 7.099386 0.415694 -0.424598 4.586376 -23.955956 -2.142195 -2.960749 -5.264318 -0.054594 -16.154191 1.259173 -40.156861 -164.162121 -67.508886 -163.480660 0.000000 0.000000 0.000000 9.209675 1.603204 0.757008 -0.509582 7.261194 6.151729 5.308037 4.372862 4.580114 8.597739 2.722739 39.042840 -87.758170 84.601155 94.155251 0.000000 0.000000 0.000000 
2.924997 80.528046 -8.630520 0.000000 0.000000 0.000000 8.860511 -2.909254 4.360787 -61.426856 -2.097298 19.493220 51.479593 -5.097954 6.061115 8.811676 5.672373 -27.450645 1.136783 -5.341172 3.658265 0.000000 0.000000 0.000000 9.136594 -2.818167 4.391853 -42.249426 -5.480119 -26.331441 53.641458 16.154132 -8.374653 -14.310469 -18.146418 34.382698 6.188323 12.691928 -19.362574 0.000000 0.000000 0.000000 9.000361 4.359136 3.102484 3.805533 -0.240568 -2.319216 9.596638 -0.321535 1.129228 0.067941 0.168712 -0.103873 0.000000 0.000000 0.000000 8.564568 2.370174 0.971111 -2.046622 -2.943800 -7.963262 -32.384539 3.121417 -6.283060 0.000000 0.000000 0.000000 7.126099 0.398946 -0.414997 4.581624 -23.978593 -2.159127 -2.909095 -5.274523 -0.100887 -16.340671 1.124619 -40.267537 -164.150469 -67.616564 -163.439965 0.000000 0.000000 0.000000 9.224063 1.570433 0.749731 -0.505386 7.431730 6.139812 5.547220 4.618775 4.516604 8.680794 2.642145 38.936289 -89.091505 84.627137 95.506924 0.000000 0.000000 0.000000 
2.990053 80.534554 -8.533794 0.000000 0.000000 0.000000 8.924983 -3.011616 4.328073 -61.397650 -2.286541 19.430546 51.630588 -5.023777 6.061012 8.811133 5.791156 -27.425549 1.002785 -5.353319 3.575132 0.000000 0.000000 0.000000 9.158376 -2.926574 4.369519 -42.319453 -5.440005 -26.309165 53.540190 16.138612 -8.363953 -14.183405 -18.170163 34.390255 6.359607 12.645288 -19.422474 0.000000 0.000000 0.000000 8.984310 4.282964 3.037511 3.727186 -0.200288 -2.352902 9.644730 -0.349899 1.121626 0.073439 0.165910 -0.102771 0.000000 0.000000 0.000000 8.563141 2.337377 0.968747 -1.947032 -2.765465 -8.079444 -31.979263 3.564643 -6.301322 0.000000 0.000000 0.000000 7.160600 0.371347 -0.416508 4.559121 -23.963295 -2.129605 -2.743911 -5.275577 -0.144427 -16.634468 0.968194 -40.505764 -164.208731 -67.938731 -163.510412 0.000000 0.000000 0.000000 9.254261 1.535097 0.736890 -0.474828 7.639748 6.108951 5.613210 4.737619 4.506916 8.988816 2.811908 38.452954 -88.368366 84.692269 94.826125 0.000000 0.000000 0.000000 
3.052306 80.523178 -8.447235 0.000000 0.000000 0.000000 8.992426 -3.155548 4.293809 -61.362775 -2.512977 19.330892 51.813012 -4.910783 6.058499 8.722464 5.992127 -27.313097 0.776619 -5.352938 3.372048 0.000000 0.000000 0.000000 9.205791 -3.104748 4.349926 -42.431386 -5.356090 -26.256448 53.443737 16.092484 -8.353605 -13.971363 -18.196514 34.378664 6.556915 12.585423 -19.520759 0.000000 0.000000 0.000000 8.967765 4.204580 2.984797 3.639284 -0.132917 -2.394371 9.691147 -0.388372 1.105574 0.078990 0.150284 -0.094191 0.000000 0.000000 0.000000 8.553811 2.294614 0.959016 -1.834553 -2.521428 -8.224883 -31.373757 4.120899 -6.376763 0.000000 0.000000 0.000000 7.194928 0.330999 -0.436332 4.519749 -23.939096 -2.068721 -2.511208 -5.252045 -0.200749 -16.966275 0.791775 -40.798103 -164.303260 -68.382782 -163.663272 0.000000 0.000000 0.000000 9.286925 1.492191 0.715163 -0.421338 7.874280 6.059032 5.539120 4.765112 4.579654 9.429131 3.142535 37.693031 -86.277549 84.772729 92.805646 0.000000 0.000000 0.000000 
3.095018 80.490555 -8.409584 0.000000 0.000000 0.000000 9.043054 -3.267993 4.250045 -61.333350 -2.743031 19.216993 52.001434 -4.807367 6.070585 8.602211 6.225478 -27.159957 0.535247 -5.342184 3.108187 0.000000 0.000000 0.000000 9.269397 -3.241038 4.315918 -42.555992 -5.222548 -26.169515 53.359866 16.034141 -8.349658 -13.665142 -18.214132 34.418935 6.555104 12.549183 -19.624607 0.000000 0.000000 0.000000 8.960648 4.165072 2.953076 3.564871 -0.048455 -2.439992 9.732529 -0.442218 1.072044 0.080793 0.136367 -0.082181 0.000000 0.000000 0.000000 8.534616 2.239428 0.934852 -1.737218 -2.227939 -8.377472 -30.697510 4.736045 -6.482585 0.000000 0.000000 0.000000 7.225419 0.276404 -0.478902 4.473100 -23.936965 -1.978259 -2.263635 -5.181609 -0.258110 -17.273965 0.597080 -41.048320 -164.408404 -68.804607 -163.854981 0.000000 0.000000 0.000000 9.313510 1.439784 0.678189 -0.346811 8.117856 6.000936 5.362391 4.768035 4.721481 9.879589 3.527394 36.761232 -83.986738 84.839235 90.618135 0.000000 0.000000 0.000000 
3.118726 80.434998 -8.439732 0.000000 0.000000 0.000000 9.073477 -3.326807 4.197918 -61.363212 -2.948198 19.122385 52.193410 -4.755179 6.100653 8.532806 6.429238 -27.027292 0.385987 -5.320533 2.830894 0.000000 0.000000 0.000000 9.332396 -3.279617 4.261891 -42.653661 -5.037871 -26.043380 53.282825 15.983712 -8.360724 -13.355612 -18.214559 34.498876 6.365715 12.536375 -19.699473 0.000000 0.000000 0.000000 8.973633 4.173827 2.953913 3.529321 0.044662 -2.481097 9.772151 -0.509643 1.016311 0.078289 0.119153 -0.072459 0.000000 0.000000 0.000000 8.505028 2.175471 0.893610 -1.666634 -1.906076 -8.510591 -30.035398 5.381845 -6.594914 0.000000 0.000000 0.000000 7.246180 0.209742 -0.543951 4.422959 -23.967260 -1.882338 -2.060790 -5.034837 -0.340206 -17.507086 0.416958 -41.162606 -164.515857 -69.077753 -164.064545 0.000000 0.000000 0.000000 9.328296 1.376973 0.625782 -0.256776 8.360688 5.939988 5.193715 4.735771 4.890100 10.220569 3.805216 35.791930 -82.034253 84.888105 88.811645 0.000000 0.000000 0.000000 
3.120433 80.383331 -8.515747 0.000000 0.000000 0.000000 9.074729 -3.325804 4.148648 -61.454238 -3.095817 19.079152 52.332800 -4.763937 6.150503 8.550453 6.562365 -26.940981 0.337937 -5.304764 2.659338 0.000000 0.000000 0.000000 9.372854 -3.247377 4.197627 -42.693364 -4.841980 -25.885355 53.215182 15.941030 -8.383268 -13.162399 -18.202592 34.495911 6.256569 12.508434 -19.707949 0.000000 0.000000 0.000000 8.995649 4.205709 2.984064 3.541916 0.147317 -2.506027 9.800763 -0.584509 0.943808 0.073630 0.110442 -0.069325 0.000000 0.000000 0.000000 8.467102 2.108589 0.838564 -1.624410 -1.565050 -8.606103 -29.450259 6.030916 -6.697486 0.000000 0.000000 0.000000 7.257666 0.140312 -0.622019 4.375530 -24.039964 -1.790426 -1.977652 -4.850648 -0.442559 -17.593029 0.280544 -41.114054 -164.571564 -69.150406 -164.215820 0.000000 0.000000 0.000000 9.328601 1.308646 0.564213 -0.155193 8.601444 5.867478 5.120447 4.704613 5.057919 10.391717 3.868148 34.872371 -81.292317 84.935738 88.257054 0.000000 0.000000 0.000000 
3.100889 80.360031 -8.616268 0.000000 0.000000 0.000000 9.046409 -3.277774 4.121518 -61.550434 -3.162488 19.074393 52.364666 -4.827004 6.216513 8.669075 6.602341 -26.919555 0.434310 -5.304651 2.636839 0.000000 0.000000 0.000000 9.366301 -3.188136 4.155486 -42.693853 -4.679226 -25.734823 53.155339 15.896756 -8.403523 -13.118290 -18.179177 34.367777 6.343090 12.450435 -19.640965 0.000000 0.000000 0.000000 9.010482 4.243272 3.044118 3.585045 0.253895 -2.507566 9.813387 -0.657704 0.864700 0.070022 0.109812 -0.074293 0.000000 0.000000 0.000000 8.423497 2.044241 0.781676 -1.590245 -1.229007 -8.653967 -28.974871 6.639239 -6.797723 0.000000 0.000000 0.000000 7.261889 0.078594 -0.698799 4.336207 -24.139169 -1.719650 -2.024962 -4.720677 -0.552419 -17.513001 0.232944 -40.941223 -164.491897 -69.083976 -164.215684 0.000000 0.000000 0.000000 9.318777 1.248579 0.505745 -0.040684 8.847042 5.773192 5.069664 4.561994 5.275472 10.389151 3.682702 34.039508 -83.110951 85.004873 90.299308 0.000000 0.000000 0.000000 
